<?xml version="1.0" encoding="UTF-8" standalone="no"?>
<svg
   width="361.33032"
   height="146.77704"
   viewBox="0 0 361.33035 146.77704"
   version="1.1"
   id="svg95"
   sodipodi:docname="rustaceanvim.svg"
   inkscape:version="1.2.2 (b0a8486541, 2022-12-01)"
   xmlns:inkscape="http://www.inkscape.org/namespaces/inkscape"
   xmlns:sodipodi="http://sodipodi.sourceforge.net/DTD/sodipodi-0.dtd"
   xmlns:xlink="http://www.w3.org/1999/xlink"
   xmlns="http://www.w3.org/2000/svg"
   xmlns:svg="http://www.w3.org/2000/svg"
   xmlns:rdf="http://www.w3.org/1999/02/22-rdf-syntax-ns#"
   xmlns:cc="http://creativecommons.org/ns#"
   xmlns:dc="http://purl.org/dc/elements/1.1/"
   xmlns:sketch="http://www.bohemiancoding.com/sketch/ns"
   xmlns:serif="http://www.serif.com/">
  <sodipodi:namedview
     id="namedview97"
     pagecolor="#505050"
     bordercolor="#ffffff"
     borderopacity="1"
     inkscape:showpageshadow="0"
     inkscape:pageopacity="0"
     inkscape:pagecheckerboard="1"
     inkscape:deskcolor="#505050"
     showgrid="false"
     inkscape:zoom="1.456705"
     inkscape:cx="169.90399"
     inkscape:cy="44.621251"
     inkscape:window-width="1920"
     inkscape:window-height="1080"
     inkscape:window-x="0"
     inkscape:window-y="0"
     inkscape:window-maximized="1"
     inkscape:current-layer="g1499"
     showguides="true" />
  <title
     id="title70">neovim-mark@2x</title>
  <description>Created with Sketch (http://www.bohemiancoding.com/sketch)</description>
  <defs
     id="defs87">
    <linearGradient
       x1="167.95833"
       y1="-0.46142399"
       x2="167.95833"
       y2="335.45523"
       id="linearGradient-1"
       gradientTransform="scale(0.46142398,2.1672042)"
       gradientUnits="userSpaceOnUse">
      <stop
         stop-color="#16B0ED"
         stop-opacity="0.800235524"
         offset="0%"
         id="stop72" />
      <stop
         stop-color="#0F59B2"
         stop-opacity="0.83700023"
         offset="100%"
         id="stop74" />
    </linearGradient>
    <linearGradient
       x1="1118.3427"
       y1="-0.46586797"
       x2="1118.3427"
       y2="338.68604"
       id="linearGradient-2"
       gradientTransform="scale(0.46586797,2.1465309)"
       gradientUnits="userSpaceOnUse">
      <stop
         stop-color="#7DB643"
         offset="0%"
         id="stop77" />
      <stop
         stop-color="#367533"
         offset="100%"
         id="stop79" />
    </linearGradient>
    <linearGradient
       x1="356.33795"
       y1="0"
       x2="356.33795"
       y2="612.90131"
       id="linearGradient-3"
       gradientTransform="scale(0.84189739,1.1877932)"
       gradientUnits="userSpaceOnUse">
      <stop
         stop-color="#88C649"
         stop-opacity="0.8"
         offset="0%"
         id="stop82" />
      <stop
         stop-color="#439240"
         stop-opacity="0.84"
         offset="100%"
         id="stop84" />
    </linearGradient>
    <linearGradient
       x1="49.021549"
       y1="-0.079835393"
       x2="49.021549"
       y2="97.845657"
       id="linearGradient-1-2"
       gradientTransform="scale(0.46153975,2.1666606)"
       gradientUnits="userSpaceOnUse">
      <stop
         stop-color="#16B0ED"
         stop-opacity="0.800235524"
         offset="0%"
         id="stop5136" />
      <stop
         stop-color="#0F59B2"
         stop-opacity="0.83700023"
         offset="100%"
         id="stop5138" />
    </linearGradient>
    <linearGradient
       x1="326.17365"
       y1="-0.069164939"
       x2="326.17365"
       y2="98.851547"
       id="linearGradient-2-2"
       gradientTransform="scale(0.46628455,2.1446132)"
       gradientUnits="userSpaceOnUse">
      <stop
         stop-color="#7DB643"
         offset="0%"
         id="stop5141" />
      <stop
         stop-color="#367533"
         offset="100%"
         id="stop5143" />
    </linearGradient>
    <linearGradient
       x1="103.88479"
       y1="-0.11508822"
       x2="103.88479"
       y2="178.55785"
       id="linearGradient-3-8"
       gradientTransform="scale(0.84203823,1.1875945)"
       gradientUnits="userSpaceOnUse">
      <stop
         stop-color="#88C649"
         stop-opacity="0.8"
         offset="0%"
         id="stop5146" />
      <stop
         stop-color="#439240"
         stop-opacity="0.84"
         offset="100%"
         id="stop5148" />
    </linearGradient>
    <linearGradient
       id="_Linear1"
       x1="0"
       y1="0"
       x2="1"
       y2="0"
       gradientUnits="userSpaceOnUse"
       gradientTransform="matrix(1,0,0,-1,0,-6.50515e-4)">
      <stop
         offset="0"
         style="stop-color:rgb(247,76,0);stop-opacity:1"
         id="stop505" />
      <stop
         offset="0.33"
         style="stop-color:rgb(247,76,0);stop-opacity:1"
         id="stop507" />
      <stop
         offset="1"
         style="stop-color:rgb(244,150,0);stop-opacity:1"
         id="stop509" />
    </linearGradient>
    <linearGradient
       id="_Linear2"
       x1="0"
       y1="0"
       x2="1"
       y2="0"
       gradientUnits="userSpaceOnUse"
       gradientTransform="matrix(1,0,0,-1,0,1.23438e-6)">
      <stop
         offset="0"
         style="stop-color:rgb(204,58,0);stop-opacity:1"
         id="stop512" />
      <stop
         offset="0.15"
         style="stop-color:rgb(204,58,0);stop-opacity:1"
         id="stop514" />
      <stop
         offset="0.74"
         style="stop-color:rgb(247,76,0);stop-opacity:1"
         id="stop516" />
      <stop
         offset="1"
         style="stop-color:rgb(247,76,0);stop-opacity:1"
         id="stop518" />
    </linearGradient>
    <linearGradient
       id="_Linear3"
       x1="0"
       y1="0"
       x2="1"
       y2="0"
       gradientUnits="userSpaceOnUse"
       gradientTransform="scale(1,-1)">
      <stop
         offset="0"
         style="stop-color:rgb(204,58,0);stop-opacity:1"
         id="stop521" />
      <stop
         offset="0.15"
         style="stop-color:rgb(204,58,0);stop-opacity:1"
         id="stop523" />
      <stop
         offset="0.74"
         style="stop-color:rgb(247,76,0);stop-opacity:1"
         id="stop525" />
      <stop
         offset="1"
         style="stop-color:rgb(247,76,0);stop-opacity:1"
         id="stop527" />
    </linearGradient>
    <linearGradient
       inkscape:collect="always"
       xlink:href="#linearGradient-1"
       id="linearGradient750"
       gradientUnits="userSpaceOnUse"
       gradientTransform="scale(0.46142398,2.1672042)"
       x1="167.95833"
       y1="-0.46142399"
       x2="167.95833"
       y2="335.45523" />
    <linearGradient
       inkscape:collect="always"
       xlink:href="#linearGradient-2"
       id="linearGradient752"
       gradientUnits="userSpaceOnUse"
       gradientTransform="scale(0.46586797,2.1465309)"
       x1="1118.3427"
       y1="-0.46586797"
       x2="1118.3427"
       y2="338.68604" />
    <linearGradient
       inkscape:collect="always"
       xlink:href="#linearGradient-3"
       id="linearGradient754"
       gradientUnits="userSpaceOnUse"
       gradientTransform="scale(0.84189739,1.1877932)"
       x1="356.33795"
       y1="0"
       x2="356.33795"
       y2="612.90131" />
  </defs>
  <metadata
     id="metadata14713">
    <rdf:RDF>
      <cc:Work
         rdf:about="">
        <dc:title>neovim-mark@2x</dc:title>
      </cc:Work>
    </rdf:RDF>
  </metadata>
  <g
     aria-label="rustaceanvim"
     id="text4483"
     style="font-weight:bold;font-size:33.4748px;font-family:Lato;-inkscape-font-specification:'Lato Bold';fill:#1a1a1a;stroke-width:1.39478"
     transform="translate(-15.317373,177.11108)">
    <g
       id="g5925"
       transform="matrix(1.6576683,0,0,1.6576683,-217.36825,0)">
      <g
         id="g1499"
         transform="matrix(0.59423772,0,0,0.59423772,227.99656,-25.11164)">
        <g
           id="Page-1"
           stroke="none"
           stroke-width="1"
           fill="none"
           fill-rule="evenodd"
           sketch:type="MSPage"
           transform="matrix(0.09185292,0,0,0.09293883,8.2059528,-116.31995)">
          <g
             id="mark-copy"
             sketch:type="MSLayerGroup"
             transform="translate(2,3)">
            <path
               d="M 0,155.5704 155,-1 V 727 L 0,572.23792 Z"
               id="Left---green"
               fill="url(#linearGradient-1)"
               sketch:type="MSShapeGroup"
               style="fill:url(#linearGradient750)" />
            <path
               d="M 443.0604,156.9824 600,-1 596.81879,727 442,572.21994 Z"
               id="Right---blue"
               fill="url(#linearGradient-2)"
               sketch:type="MSShapeGroup"
               transform="matrix(-1,0,0,1,1042,0)"
               style="fill:url(#linearGradient752)" />
            <path
               d="M 154.98629,0 558,615.1897 445.2246,728 42,114.17202 Z"
               id="Cross---blue"
               fill="url(#linearGradient-3)"
               sketch:type="MSShapeGroup"
               style="fill:url(#linearGradient754)" />
            <path
               d="M 155,283.83232 154.78675,308 31,124.71061 42.461949,113 Z"
               id="Shadow"
               fill-opacity="0.13"
               fill="#000000"
               sketch:type="MSShapeGroup" />
          </g>
        </g>
        <g
           id="Layer-1"
           serif:id="Layer 1"
           style="clip-rule:evenodd;fill-rule:evenodd;stroke-linejoin:round;stroke-miterlimit:1.41421"
           transform="matrix(0.03892676,-0.03670031,0.0362715,0.03938696,-32.156897,-109.88804)">
          <g
             transform="translate(597.344,637.02)"
             id="g458">
            <path
               d="m 0,-279.559 c -121.238,0 -231.39,14.576 -312.939,38.329 V -38.329 C -231.39,-14.575 -121.238,0 0,0 138.76,0 262.987,-19.092 346.431,-49.186 V -230.37 C 262.987,-260.465 138.76,-279.559 0,-279.559"
               style="fill:#a52b00;fill-rule:nonzero"
               id="path456" />
          </g>
          <g
             transform="translate(1068.75,575.642)"
             id="g462">
            <path
               d="m 0,-53.32 -14.211,-29.441 c 0.073,-1.118 0.131,-2.237 0.131,-3.36 0,-33.375 -34.706,-64.135 -93.097,-88.762 V 2.643 c 27.245,-11.492 49.348,-24.317 65.156,-38.125 -4.652,18.707 -20.564,56.553 -33.25,83.168 -20.85,38.066 -28.4,71.203 -27.432,72.844 0.617,1.033 7.73,-9.94 18.219,-27.721 C -60.074,58.028 -13.82,-8.373 -4.575,-25.287 5.897,-44.461 0,-53.32 0,-53.32"
               style="fill:#a52b00;fill-rule:nonzero"
               id="path460" />
          </g>
          <g
             transform="translate(149.064,591.421)"
             id="g466">
            <path
               d="m 0,-99.954 c 0,6.428 1.293,12.76 3.788,18.969 l -8.511,15.15 c 0,0 -6.818,8.846 5.188,27.508 10.59,16.455 63.635,80.867 91.632,114.598 12.026,17.293 20.179,27.945 20.893,26.916 1.124,-1.633 -7.476,-34.1 -31.359,-71.141 -11.144,-19.895 -24.454,-46.252 -32.442,-65.721 22.303,14.116 51.483,26.92 86.152,37.94 V -204.17 C 51.797,-177.622 0,-140.737 0,-99.954"
               style="fill:#a52b00;fill-rule:nonzero"
               id="path464" />
          </g>
          <g
             transform="matrix(-65.8097,-752.207,-752.207,65.8097,621.707,796.312)"
             id="g470">
            <path
               d="M 0.991,-0.034 0.933,0.008 c 0,0.006 0,0.012 0,0.018 L 0.99,0.069 C 0.996,0.073 0.999,0.08 0.998,0.087 0.997,0.094 0.992,0.1 0.986,0.103 L 0.92,0.133 C 0.919,0.139 0.918,0.145 0.916,0.15 L 0.964,0.203 C 0.968,0.208 0.97,0.216 0.968,0.222 0.965,0.229 0.96,0.234 0.953,0.236 L 0.882,0.254 C 0.88,0.259 0.877,0.264 0.875,0.27 L 0.91,0.33 c 0.004,0.006 0.004,0.014 0,0.02 C 0.907,0.356 0.9,0.36 0.893,0.361 L 0.82,0.365 C 0.817,0.369 0.813,0.374 0.81,0.379 L 0.832,0.445 C 0.835,0.452 0.833,0.459 0.828,0.465 0.824,0.47 0.816,0.473 0.809,0.472 L 0.737,0.462 C 0.733,0.466 0.729,0.47 0.724,0.474 l 0.009,0.07 C 0.734,0.551 0.731,0.558 0.725,0.562 0.719,0.566 0.711,0.568 0.704,0.565 L 0.636,0.542 C 0.631,0.546 0.626,0.549 0.621,0.552 L 0.615,0.621 c 0,0.008 -0.005,0.014 -0.011,0.017 -0.007,0.003 -0.015,0.003 -0.021,0 L 0.521,0.602 C 0.52,0.603 0.519,0.603 0.518,0.603 L 0.406,0.729 c 0,0 -0.012,0.018 -0.047,-0.004 C 0.329,0.705 0.206,0.599 0.141,0.543 0.109,0.52 0.089,0.504 0.09,0.502 0.093,0.499 0.149,0.509 0.217,0.554 0.278,0.588 0.371,0.631 0.38,0.619 c 0,0 0.016,-0.015 0.026,-0.044 0,0 0,0 0,0 10e-4,0.001 10e-4,0.001 0,0 0,0 -0.315,-0.551 -0.101,-1.106 C 0.311,-0.593 0.275,-0.627 0.275,-0.627 0.266,-0.639 0.178,-0.598 0.12,-0.566 0.055,-0.523 0.002,-0.513 0,-0.516 -0.001,-0.518 0.018,-0.533 0.049,-0.555 0.11,-0.608 0.227,-0.707 0.256,-0.726 0.289,-0.748 0.301,-0.73 0.301,-0.73 l 0.101,0.115 c 0.004,0.001 0.008,0.002 0.013,0.002 L 0.47,-0.658 c 0.005,-0.005 0.013,-0.006 0.02,-0.004 0.007,0.002 0.012,0.007 0.014,0.014 l 0.018,0.068 c 0.005,0.002 0.011,0.004 0.016,0.006 l 0.064,-0.034 c 0.006,-0.004 0.014,-0.004 0.021,0 0.006,0.003 0.01,0.009 0.01,0.016 l 0.004,0.07 c 0.005,0.003 0.01,0.007 0.015,0.01 l 0.069,-0.022 c 0.007,-0.002 0.015,-0.001 0.02,0.003 0.006,0.005 0.009,0.012 0.008,0.019 l -0.011,0.069 c 0.004,0.004 0.008,0.008 0.013,0.012 l 0.072,-0.008 c 0.007,-0.001 0.014,0.002 0.019,0.007 0.005,0.006 0.006,0.013 0.003,0.02 l -0.024,0.065 c 0.003,0.005 0.007,0.01 0.01,0.015 l 0.072,0.005 c 0.008,0 0.014,0.005 0.017,0.011 0.004,0.006 0.004,0.014 0,0.02 l -0.037,0.06 c 0.002,0.005 0.004,0.01 0.006,0.016 l 0.07,0.018 c 0.007,0.002 0.013,0.007 0.015,0.014 0.002,0.007 0,0.014 -0.005,0.02 L 0.92,-0.116 c 0.001,0.005 0.003,0.011 0.004,0.017 l 0.064,0.031 C 0.995,-0.065 0.999,-0.059 1,-0.052 1.001,-0.045 0.997,-0.038 0.991,-0.034 Z M 0.406,0.575 c 0,0 0,0 0,0 0,0 0,0 0,0 z"
               style="fill:url(#_Linear1);fill-rule:nonzero"
               id="path468" />
          </g>
          <g
             transform="translate(450.328,483.629)"
             id="g474">
            <path
               d="m 0,167.33 c -1.664,-1.42 -2.536,-2.262 -2.536,-2.262 L 140.006,153.391 C 23.733,0 -69.418,122.193 -79.333,135.855 v 31.475 z"
               style="fill-rule:nonzero"
               id="path472" />
          </g>
          <g
             transform="translate(747.12,477.333)"
             id="g478">
            <path
               d="m 0,171.974 c 1.663,-1.42 2.536,-2.264 2.536,-2.264 L -134.448,159.687 C -18.12,0 69.421,126.835 79.335,140.497 v 31.477 z"
               style="fill-rule:nonzero"
               id="path476" />
          </g>
          <g
             transform="matrix(-1.53e-5,-267.211,-267.211,1.53e-5,809.465,764.23)"
             id="g482">
            <path
               d="m 1,-0.586 c 0,0 -0.232,0.058 -0.476,0.421 L 0.5,-0.064 c 0,0 0.6,0.329 -0.076,0.795 0,0 0.084,-0.145 -0.019,-0.534 0,0 -0.274,0.179 -0.265,0.539 0,0 -0.415,-0.345 0.184,-0.871 0,0 0.215,-0.556 0.676,-0.601 z"
               style="fill:url(#_Linear2);fill-rule:nonzero"
               id="path480" />
          </g>
          <g
             transform="translate(677.392,509.61)"
             id="g486">
            <path
               d="m 0,-92.063 c 0,0 43.486,-47.615 86.974,0 0,0 34.17,63.492 0,95.234 0,0 -55.912,44.444 -86.974,0 0,0 -37.275,-34.921 0,-95.234"
               style="fill-rule:nonzero"
               id="path484" />
          </g>
          <g
             transform="translate(727.738,435.209)"
             id="g490">
            <path
               d="m 0,0.002 c 0,18.541 -10.93,33.572 -24.408,33.572 -13.477,0 -24.406,-15.031 -24.406,-33.572 0,-18.541 10.929,-33.574 24.406,-33.574 C -10.93,-33.572 0,-18.539 0,0.002"
               style="fill:#ffffff;fill-rule:nonzero"
               id="path488" />
          </g>
          <g
             transform="translate(483.3,502.984)"
             id="g494">
            <path
               d="m 0,-98.439 c 0,0 74.596,-33.028 94.956,40.691 0,0 21.327,85.926 -61.259,90.776 0,0 -105.31,-20.283 -33.697,-131.467"
               style="fill-rule:nonzero"
               id="path492" />
          </g>
          <g
             transform="translate(520.766,436.428)"
             id="g498">
            <path
               d="m 0,0 c 0,19.119 -11.27,34.627 -25.173,34.627 -13.898,0 -25.171,-15.508 -25.171,-34.627 0,-19.124 11.273,-34.627 25.171,-34.627 C -11.27,-34.627 0,-19.124 0,0"
               style="fill:#ffffff;fill-rule:nonzero"
               id="path496" />
          </g>
          <g
             transform="matrix(-1.53e-5,-239.021,-239.021,1.53e-5,402.161,775.388)"
             id="g502">
            <path
               d="m 0.367,0.129 c -0.731,-0.57 -0.144,-0.84 -0.144,-0.84 0.036,0.32 0.249,0.547 0.249,0.547 0.049,-0.384 0.053,-0.606 0.053,-0.606 0.678,0.514 0.064,0.931 0.064,0.931 0.038,0.104 0.183,0.211 0.317,0.29 L 1,0.77 C 0.376,0.403 0.367,0.129 0.367,0.129 Z"
               style="fill:url(#_Linear3);fill-rule:nonzero"
               id="path500" />
          </g>
        </g>
      </g>
      <text
         xml:space="preserve"
         style="font-style:normal;font-variant:normal;font-weight:bold;font-stretch:normal;font-size:35.3911px;font-family:Roboto;-inkscape-font-specification:'Roboto Bold';fill:#000000;stroke-width:0.841411"
         x="244.59421"
         y="-97.363129"
         id="text655"><tspan
           sodipodi:role="line"
           id="tspan653"
           style="stroke-width:0.841411"
           x="244.59421"
           y="-97.363129" /></text>
      <g
         id="g803"
         transform="translate(0,43.001913)"
         style="fill:#000000;fill-opacity:1">
        <g
           aria-label="rustacea"
           id="text368"
           style="font-weight:300;font-size:38.6084px;font-family:Roboto;-inkscape-font-specification:'Roboto Light';fill:#444444;fill-opacity:1;stroke-width:0.841411">
          <path
             d="m 142.12591,-76.184679 q 0.444,-1.177556 1.00382,-2.084853 0.57912,-0.926602 1.31268,-1.56364 0.75287,-0.637039 1.66016,-0.96521 0.92661,-0.347476 2.04625,-0.347476 0.59843,0 1.17756,0.115825 0.57912,0.09652 1.02312,0.36678 l -0.15444,1.274077 q -0.0965,0.308867 -0.36678,0.308867 -0.23165,0 -0.71425,-0.135129 -0.4633,-0.135129 -1.23547,-0.135129 -1.11964,0 -1.98833,0.347475 -0.84939,0.328172 -1.54434,1.003819 -0.67564,0.675647 -1.19686,1.679465 -0.50191,0.984514 -0.9266,2.277895 v 12.431905 h -1.8532 v -19.207678 h 0.98451 q 0.32817,0 0.4633,0.135129 0.13513,0.135129 0.17374,0.463301 z"
             style="font-family:lato;-inkscape-font-specification:'lato Light';fill:#444444;fill-opacity:1"
             id="path772" />
          <path
             d="m 168.92015,-80.817686 v 19.207678 h -1.02312 q -0.48261,0 -0.55982,-0.501909 l -0.17374,-2.857022 q -1.33199,1.660161 -3.08867,2.66398 -1.73738,1.003818 -3.88015,1.003818 -1.60224,0 -2.79911,-0.501909 -1.19686,-0.501909 -1.98833,-1.447815 -0.79147,-0.945906 -1.19686,-2.277896 -0.40539,-1.331989 -0.40539,-3.011455 v -12.27747 h 1.85321 v 12.27747 q 0,2.702588 1.23547,4.246924 1.23546,1.525032 3.76431,1.525032 1.87251,0 3.49406,-0.945906 1.64086,-0.96521 2.91494,-2.663979 v -14.439541 z"
             style="font-family:lato;-inkscape-font-specification:'lato Light';fill:#444444;fill-opacity:1"
             id="path774" />
          <path
             d="m 185.792,-78.44327 q -0.15443,0.270259 -0.44399,0.270259 -0.21235,0 -0.54052,-0.231651 -0.32817,-0.250954 -0.88799,-0.540517 -0.54052,-0.308867 -1.3513,-0.540518 -0.81077,-0.250954 -1.96902,-0.250954 -1.04243,0 -1.91112,0.308867 -0.84939,0.289563 -1.46712,0.791472 -0.59843,0.501909 -0.9266,1.177556 -0.32817,0.656343 -0.32817,1.389903 0,0.907297 0.4633,1.505727 0.4633,0.59843 1.19686,1.023123 0.75286,0.424692 1.71807,0.733559 0.96521,0.308867 1.94973,0.617735 1.00381,0.308867 1.96902,0.694951 0.96521,0.36678 1.69877,0.926601 0.75287,0.559822 1.21617,1.370598 0.4633,0.810777 0.4633,1.969029 0,1.254773 -0.444,2.335808 -0.44399,1.081035 -1.31268,1.872507 -0.84939,0.791472 -2.10416,1.254773 -1.25477,0.463301 -2.87633,0.463301 -2.02694,0 -3.49406,-0.637039 -1.46712,-0.656342 -2.62537,-1.698769 l 0.4247,-0.656343 q 0.0965,-0.154434 0.21234,-0.23165 0.13513,-0.07722 0.34748,-0.07722 0.25095,0 0.59843,0.308867 0.36678,0.308867 0.96521,0.675647 0.59843,0.347476 1.46712,0.656343 0.88799,0.308867 2.18137,0.308867 1.21617,0 2.14277,-0.328171 0.9266,-0.347476 1.54433,-0.926602 0.61774,-0.579126 0.9266,-1.351294 0.32818,-0.791472 0.32818,-1.660161 0,-0.96521 -0.46331,-1.602249 -0.4633,-0.637038 -1.21616,-1.081035 -0.75286,-0.443996 -1.71807,-0.752863 -0.94591,-0.308868 -1.94973,-0.617735 -1.00382,-0.308867 -1.96903,-0.675647 -0.9459,-0.36678 -1.69877,-0.926601 -0.75286,-0.559822 -1.21616,-1.351294 -0.4633,-0.810777 -0.4633,-2.007637 0,-1.023123 0.444,-1.969028 0.44399,-0.945906 1.25477,-1.660162 0.83008,-0.714255 2.00764,-1.138947 1.17755,-0.424693 2.64467,-0.424693 1.75668,0 3.10798,0.50191 1.3706,0.501909 2.49024,1.544335 z"
             style="font-family:lato;-inkscape-font-specification:'lato Light';fill:#444444;fill-opacity:1"
             id="path776" />
          <path
             d="m 196.89189,-61.301141 q -1.94973,0 -3.05006,-1.081035 -1.08104,-1.081035 -1.08104,-3.339627 v -13.126855 h -2.7605 q -0.21235,0 -0.34748,-0.115825 -0.13513,-0.115826 -0.13513,-0.328172 v -0.714255 l 3.28172,-0.23165 0.4633,-6.872295 q 0.0386,-0.173738 0.15443,-0.308868 0.11583,-0.135129 0.32817,-0.135129 h 0.86869 v 7.335596 h 6.06152 v 1.370598 h -6.06152 v 13.030334 q 0,0.791472 0.19305,1.370598 0.21234,0.559822 0.55982,0.926602 0.36678,0.36678 0.84938,0.540518 0.48261,0.173737 1.04243,0.173737 0.69495,0 1.19686,-0.193042 0.50191,-0.212346 0.86869,-0.443996 0.36678,-0.250955 0.59843,-0.443997 0.23165,-0.212346 0.36678,-0.212346 0.15443,0 0.30886,0.193042 l 0.50191,0.810776 q -0.73356,0.810777 -1.8725,1.312686 -1.11965,0.482605 -2.33581,0.482605 z"
             style="font-family:lato;-inkscape-font-specification:'lato Light';fill:#444444;fill-opacity:1"
             id="path778" />
          <path
             d="m 215.61699,-70.895328 q -2.7412,0.09652 -4.72953,0.443997 -1.96903,0.328171 -3.26241,0.907297 -1.27408,0.579126 -1.89181,1.389902 -0.61773,0.791472 -0.61773,1.814595 0,0.96521 0.30886,1.679465 0.32817,0.694951 0.84939,1.158252 0.54051,0.443997 1.23547,0.656343 0.69495,0.212346 1.44781,0.212346 1.11964,0 2.04625,-0.23165 0.9459,-0.250955 1.73737,-0.675647 0.81078,-0.443997 1.50573,-1.042427 0.69495,-0.59843 1.3706,-1.293381 z m -11.29296,-7.200466 q 1.50573,-1.505728 3.16589,-2.277896 1.66016,-0.772168 3.76432,-0.772168 1.54434,0 2.70259,0.501909 1.15825,0.482605 1.91111,1.409207 0.77217,0.907297 1.15826,2.219983 0.38608,1.293381 0.38608,2.89563 v 12.509121 h -0.73356 q -0.57913,0 -0.71425,-0.540518 l -0.27026,-2.470937 q -0.79148,0.772168 -1.58295,1.389902 -0.77217,0.617734 -1.62155,1.042427 -0.84939,0.424692 -1.8339,0.656343 -0.98451,0.23165 -2.16207,0.23165 -0.98451,0 -1.91112,-0.289563 -0.9266,-0.289563 -1.66016,-0.887993 -0.71425,-0.59843 -1.15825,-1.525032 -0.42469,-0.945906 -0.42469,-2.258591 0,-1.216165 0.69495,-2.258592 0.69495,-1.042426 2.18137,-1.814594 1.48643,-0.772168 3.80293,-1.235469 2.33581,-0.463301 5.59822,-0.540518 v -2.007636 q 0,-2.66398 -1.15825,-4.092491 -1.13895,-1.447815 -3.39754,-1.447815 -1.3899,0 -2.37442,0.386084 -0.96521,0.386084 -1.64086,0.849385 -0.67564,0.463301 -1.10033,0.849385 -0.4247,0.386084 -0.71426,0.386084 -0.21235,0 -0.34748,-0.09652 -0.13512,-0.09652 -0.23165,-0.250955 z"
             style="font-family:lato;-inkscape-font-specification:'lato Light';fill:#444444;fill-opacity:1"
             id="path780" />
          <path
             d="m 236.46549,-78.250228 q -0.0965,0.09652 -0.19304,0.173738 -0.0772,0.05791 -0.23165,0.05791 -0.19304,0 -0.52121,-0.250954 -0.32818,-0.270259 -0.888,-0.579126 -0.55982,-0.308867 -1.4092,-0.559822 -0.83008,-0.270259 -2.02694,-0.270259 -1.66017,0 -2.95355,0.59843 -1.27407,0.579126 -2.16207,1.679466 -0.88799,1.100339 -1.35129,2.663979 -0.444,1.56364 -0.444,3.513365 0,2.02694 0.4633,3.590581 0.48261,1.56364 1.3513,2.644675 0.86869,1.061731 2.10415,1.621553 1.23547,0.559821 2.7412,0.559821 1.3899,0 2.3165,-0.328171 0.94591,-0.328171 1.54434,-0.714255 0.61773,-0.386084 0.96521,-0.714256 0.34748,-0.328171 0.57913,-0.328171 0.23165,0 0.38608,0.193042 l 0.48261,0.617734 q -0.444,0.579126 -1.11965,1.081035 -0.67565,0.50191 -1.52503,0.868689 -0.84938,0.36678 -1.8532,0.559822 -0.98452,0.212346 -2.06555,0.212346 -1.8339,0 -3.35893,-0.656342 -1.50573,-0.675647 -2.60607,-1.93042 -1.08104,-1.274077 -1.69877,-3.107976 -0.59843,-1.833899 -0.59843,-4.169707 0,-2.200679 0.57913,-4.015274 0.57912,-1.814595 1.69877,-3.12728 1.11964,-1.312686 2.72189,-2.026941 1.62155,-0.73356 3.7064,-0.73356 1.87251,0 3.32033,0.598431 1.44781,0.59843 2.52885,1.621552 z"
             style="font-family:lato;-inkscape-font-specification:'lato Light';fill:#444444;fill-opacity:1"
             id="path782" />
          <path
             d="m 254.8624,-73.153919 q 0,-1.544336 -0.444,-2.760501 -0.42469,-1.235469 -1.21617,-2.084853 -0.79147,-0.849385 -1.89181,-1.293382 -1.08103,-0.463301 -2.39372,-0.463301 -1.48642,0 -2.66398,0.463301 -1.17755,0.463301 -2.04624,1.33199 -0.84939,0.868689 -1.3706,2.084854 -0.52121,1.216164 -0.69495,2.721892 z m -12.81799,1.177556 v 0.36678 q 0,2.16207 0.50191,3.802927 0.50191,1.640857 1.42851,2.7605 0.9266,1.10034 2.23928,1.660161 1.31269,0.559822 2.93424,0.559822 1.44782,0 2.50955,-0.308867 1.06173,-0.328171 1.77598,-0.714255 0.73356,-0.405389 1.15826,-0.714256 0.42469,-0.328171 0.61773,-0.328171 0.25096,0 0.38608,0.193042 l 0.50191,0.617734 q -0.4633,0.579126 -1.23546,1.081035 -0.75287,0.50191 -1.69877,0.868689 -0.92661,0.347476 -2.00764,0.559822 -1.06173,0.212346 -2.14277,0.212346 -1.96903,0 -3.59058,-0.675647 -1.62155,-0.694951 -2.7798,-2.007636 -1.15825,-1.312686 -1.79529,-3.204497 -0.61774,-1.911116 -0.61774,-4.362749 0,-2.06555 0.57913,-3.802928 0.59843,-1.756682 1.69877,-3.011455 1.11964,-1.274077 2.72189,-1.988332 1.62155,-0.714256 3.6678,-0.714256 1.62155,0 3.01145,0.559822 1.38991,0.559822 2.41303,1.640857 1.02312,1.061731 1.60225,2.625371 0.59843,1.56364 0.59843,3.590581 0,0.424693 -0.11583,0.579126 -0.11582,0.154434 -0.38608,0.154434 z"
             style="font-family:lato;-inkscape-font-specification:'lato Light';fill:#444444;fill-opacity:1"
             id="path784" />
          <path
             d="m 272.27477,-70.895328 q -2.7412,0.09652 -4.72953,0.443997 -1.96903,0.328171 -3.26241,0.907297 -1.27408,0.579126 -1.89181,1.389902 -0.61774,0.791472 -0.61774,1.814595 0,0.96521 0.30887,1.679465 0.32817,0.694951 0.84938,1.158252 0.54052,0.443997 1.23547,0.656343 0.69495,0.212346 1.44782,0.212346 1.11964,0 2.04624,-0.23165 0.94591,-0.250955 1.73738,-0.675647 0.81078,-0.443997 1.50573,-1.042427 0.69495,-0.59843 1.3706,-1.293381 z m -11.29296,-7.200466 q 1.50573,-1.505728 3.16589,-2.277896 1.66016,-0.772168 3.76432,-0.772168 1.54433,0 2.70258,0.501909 1.15826,0.482605 1.91112,1.409207 0.77217,0.907297 1.15825,2.219983 0.38609,1.293381 0.38609,2.89563 v 12.509121 h -0.73356 q -0.57913,0 -0.71426,-0.540518 l -0.27026,-2.470937 q -0.79147,0.772168 -1.58294,1.389902 -0.77217,0.617734 -1.62155,1.042427 -0.84939,0.424692 -1.8339,0.656343 -0.98452,0.23165 -2.16207,0.23165 -0.98452,0 -1.91112,-0.289563 -0.9266,-0.289563 -1.66016,-0.887993 -0.71426,-0.59843 -1.15825,-1.525032 -0.4247,-0.945906 -0.4247,-2.258591 0,-1.216165 0.69496,-2.258592 0.69495,-1.042426 2.18137,-1.814594 1.48642,-0.772168 3.80293,-1.235469 2.33581,-0.463301 5.59822,-0.540518 v -2.007636 q 0,-2.66398 -1.15826,-4.092491 -1.13894,-1.447815 -3.39754,-1.447815 -1.3899,0 -2.37441,0.386084 -0.96521,0.386084 -1.64086,0.849385 -0.67565,0.463301 -1.10034,0.849385 -0.42469,0.386084 -0.71425,0.386084 -0.21235,0 -0.34748,-0.09652 -0.13513,-0.09652 -0.23165,-0.250955 z"
             style="font-family:lato;-inkscape-font-specification:'lato Light';fill:#444444;fill-opacity:1"
             id="path786" />
        </g>
        <g
           aria-label="nvim"
           id="text659"
           style="font-size:38.6084px;font-family:Gotham;-inkscape-font-specification:'Gotham Bold';fill:#444444;fill-opacity:1;stroke-width:0.841411"
           transform="translate(1.1715707)">
          <path
             d="m 282.29174,-78.773418 q 0.59843,-0.598431 1.25477,-1.10034 0.67565,-0.521213 1.40921,-0.868689 0.75286,-0.36678 1.60225,-0.559822 0.84938,-0.212346 1.8532,-0.212346 1.62155,0 2.87633,0.559822 1.25477,0.540518 2.08485,1.544336 0.84938,0.984514 1.27408,2.374417 0.44399,1.370598 0.44399,3.030759 v 12.605642 h -4.76813 v -12.605642 q 0,-1.814595 -0.83009,-2.799109 -0.83008,-1.003818 -2.52885,-1.003818 -1.23546,0 -2.3165,0.559821 -1.08103,0.559822 -2.04624,1.525032 v 14.323716 h -4.76814 v -19.806109 h 2.91493 q 0.9266,0 1.21617,0.868689 z"
             style="font-family:lato;-inkscape-font-specification:'lato Bold';fill:#444444;fill-opacity:1"
             id="path763" />
          <path
             d="m 317.01998,-81.205748 -7.85681,19.806109 h -4.32414 l -7.85681,-19.806109 h 3.93806 q 0.54052,0 0.88799,0.250955 0.36678,0.250955 0.48261,0.637039 l 3.82223,10.578701 q 0.30887,0.926601 0.54052,1.814595 0.23165,0.887993 0.40539,1.775986 0.19304,-0.887993 0.42469,-1.775986 0.23165,-0.887994 0.55982,-1.814595 l 3.89945,-10.578701 q 0.13513,-0.386084 0.4826,-0.637039 0.34748,-0.250955 0.83008,-0.250955 z"
             style="font-family:lato;-inkscape-font-specification:'lato Bold';fill:#444444;fill-opacity:1"
             id="path765" />
          <path
             d="m 324.49071,-81.205748 v 19.806109 h -4.78745 v -19.806109 z m 0.65634,-5.771955 q 0,0.617734 -0.25096,1.158252 -0.25095,0.540517 -0.67564,0.945906 -0.40539,0.405388 -0.96521,0.656342 -0.55983,0.231651 -1.19686,0.231651 -0.61774,0 -1.17756,-0.231651 -0.54052,-0.250954 -0.94591,-0.656342 -0.40538,-0.405389 -0.65634,-0.945906 -0.23165,-0.540518 -0.23165,-1.158252 0,-0.637039 0.23165,-1.19686 0.25096,-0.559822 0.65634,-0.96521 0.40539,-0.405389 0.94591,-0.637039 0.55982,-0.250955 1.17756,-0.250955 0.63703,0 1.19686,0.250955 0.55982,0.23165 0.96521,0.637039 0.42469,0.405388 0.67564,0.96521 0.25096,0.559821 0.25096,1.19686 z"
             style="font-family:lato;-inkscape-font-specification:'lato Bold';fill:#444444;fill-opacity:1"
             id="path767" />
          <path
             d="m 329.35535,-61.399639 v -19.806109 h 2.91493 q 0.9266,0 1.21617,0.868689 l 0.30886,1.46712 q 0.52122,-0.579126 1.08104,-1.061731 0.57913,-0.482605 1.21616,-0.830081 0.65635,-0.347476 1.38991,-0.540518 0.75286,-0.212346 1.64085,-0.212346 1.87251,0 3.06937,1.023123 1.21617,1.003818 1.8146,2.683284 0.4633,-0.984515 1.15825,-1.679466 0.69495,-0.714255 1.52503,-1.158252 0.83008,-0.443996 1.75668,-0.656343 0.94591,-0.212346 1.89181,-0.212346 1.64086,0 2.91494,0.501909 1.27407,0.50191 2.14276,1.46712 0.86869,0.96521 1.31269,2.355112 0.4633,1.389902 0.4633,3.185193 v 12.605642 h -4.76814 v -12.605642 q 0,-1.891812 -0.83008,-2.837718 -0.83008,-0.965209 -2.43233,-0.965209 -0.73356,0 -1.3706,0.250954 -0.61773,0.250955 -1.10033,0.73356 -0.46331,0.4633 -0.73356,1.177556 -0.27026,0.714255 -0.27026,1.640857 v 12.605642 h -4.78744 v -12.605642 q 0,-1.988333 -0.81078,-2.89563 -0.79147,-0.907297 -2.33581,-0.907297 -1.04243,0 -1.94972,0.521213 -0.888,0.501909 -1.66016,1.389902 v 14.497454 z"
             style="font-family:lato;-inkscape-font-specification:'lato Bold';fill:#444444;fill-opacity:1"
             id="path769" />
        </g>
      </g>
    </g>
  </g>
</svg>
